<svg width="40" height="40" viewBox="0 0 40 40" fill="none" xmlns="http://www.w3.org/2000/svg">
<path d="M20 0.488281C21.8359 0.488281 23.6068 0.722656 25.3125 1.19141C27.0182 1.66016 28.6068 2.33724 30.0781 3.22266C31.5495 4.10807 32.8971 5.14974 34.1211 6.34766C35.3451 7.54557 36.3932 8.89323 37.2656 10.3906C38.138 11.888 38.8086 13.4831 39.2773 15.1758C39.7461 16.8685 39.987 18.6393 40 20.4883C40 22.6367 39.6745 24.707 39.0234 26.6992C38.3724 28.6914 37.4414 30.5208 36.2305 32.1875C35.0195 33.8542 33.5807 35.3125 31.9141 36.5625C30.2474 37.8125 28.3854 38.7826 26.3281 39.4727C26.2891 39.4857 26.2305 39.4922 26.1523 39.4922C26.0742 39.4922 26.0156 39.4987 25.9766 39.5117C25.6641 39.5117 25.4167 39.4206 25.2344 39.2383C25.0521 39.056 24.9609 38.8151 24.9609 38.5156V35.7812C24.9609 34.8828 24.9674 33.9648 24.9805 33.0273C24.9805 32.3633 24.8828 31.6927 24.6875 31.0156C24.4922 30.3385 24.1406 29.7721 23.6328 29.3164C25.1432 29.1471 26.4648 28.8411 27.5977 28.3984C28.7305 27.9557 29.681 27.3307 30.4492 26.5234C31.2174 25.7161 31.7904 24.7396 32.168 23.5938C32.5456 22.4479 32.7409 21.0677 32.7539 19.4531C32.7539 18.4375 32.5846 17.4805 32.2461 16.582C31.9076 15.6836 31.3932 14.8503 30.7031 14.082C30.8464 13.7174 30.9505 13.3398 31.0156 12.9492C31.0807 12.5586 31.1133 12.168 31.1133 11.7773C31.1133 11.2695 31.0612 10.7682 30.957 10.2734C30.8529 9.77865 30.7031 9.28385 30.5078 8.78906C30.4427 8.76302 30.3711 8.75 30.293 8.75C30.2148 8.75 30.1432 8.75 30.0781 8.75C29.6615 8.75 29.2253 8.8151 28.7695 8.94531C28.3138 9.07552 27.8646 9.24479 27.4219 9.45312C26.9792 9.66146 26.543 9.88932 26.1133 10.1367C25.6836 10.3841 25.3125 10.6185 25 10.8398C23.3724 10.3841 21.7057 10.1562 20 10.1562C18.2943 10.1562 16.6276 10.3841 15 10.8398C14.6745 10.6185 14.3034 10.3841 13.8867 10.1367C13.4701 9.88932 13.0404 9.66797 12.5977 9.47266C12.1549 9.27734 11.6992 9.10807 11.2305 8.96484C10.7617 8.82161 10.3255 8.75 9.92188 8.75H9.70703C9.62891 8.75 9.55729 8.76302 9.49219 8.78906C9.3099 9.27083 9.16667 9.75911 9.0625 10.2539C8.95833 10.7487 8.89974 11.2565 8.88672 11.7773C8.88672 12.168 8.91927 12.5586 8.98438 12.9492C9.04948 13.3398 9.15365 13.7174 9.29688 14.082C8.60677 14.8372 8.09245 15.6641 7.75391 16.5625C7.41536 17.4609 7.24609 18.4245 7.24609 19.4531C7.24609 21.0417 7.4349 22.4154 7.8125 23.5742C8.1901 24.7331 8.76302 25.7096 9.53125 26.5039C10.2995 27.2982 11.25 27.9297 12.3828 28.3984C13.5156 28.8672 14.8372 29.1797 16.3477 29.3359C15.9701 29.6745 15.6836 30.0781 15.4883 30.5469C15.293 31.0156 15.1562 31.5039 15.0781 32.0117C14.7266 32.181 14.3555 32.3112 13.9648 32.4023C13.5742 32.4935 13.1836 32.5391 12.793 32.5391C11.9596 32.5391 11.2695 32.3438 10.7227 31.9531C10.1758 31.5625 9.6875 31.0286 9.25781 30.3516C9.10156 30.1042 8.91276 29.8568 8.69141 29.6094C8.47005 29.362 8.22917 29.1406 7.96875 28.9453C7.70833 28.75 7.42839 28.5938 7.12891 28.4766C6.82943 28.3594 6.51693 28.2943 6.19141 28.2812H5.95703C5.85286 28.2812 5.75521 28.3008 5.66406 28.3398C5.57292 28.3789 5.48177 28.418 5.39062 28.457C5.29948 28.4961 5.26042 28.5612 5.27344 28.6523C5.27344 28.8086 5.36458 28.9583 5.54688 29.1016C5.72917 29.2448 5.87891 29.362 5.99609 29.4531L6.05469 29.4922C6.34115 29.7135 6.58854 29.9219 6.79688 30.1172C7.00521 30.3125 7.20052 30.5273 7.38281 30.7617C7.5651 30.9961 7.71484 31.2435 7.83203 31.5039C7.94922 31.7643 8.09896 32.0703 8.28125 32.4219C8.72396 33.4375 9.34245 34.1732 10.1367 34.6289C10.931 35.0846 11.888 35.319 13.0078 35.332C13.3464 35.332 13.6849 35.3125 14.0234 35.2734C14.362 35.2344 14.7005 35.1758 15.0391 35.0977V38.4961C15.0391 38.8086 14.9479 39.056 14.7656 39.2383C14.5833 39.4206 14.3294 39.5117 14.0039 39.5117H13.8477C13.7826 39.5117 13.724 39.4987 13.6719 39.4727C11.6276 38.8086 9.76562 37.8516 8.08594 36.6016C6.40625 35.3516 4.96745 33.8867 3.76953 32.207C2.57161 30.5273 1.64714 28.6914 0.996094 26.6992C0.345052 24.707 0.0130208 22.6367 0 20.4883C0 18.6523 0.234375 16.8815 0.703125 15.1758C1.17188 13.4701 1.84896 11.8815 2.73438 10.4102C3.61979 8.9388 4.66146 7.59115 5.85938 6.36719C7.05729 5.14323 8.40495 4.09505 9.90234 3.22266C11.3997 2.35026 12.9948 1.67969 14.6875 1.21094C16.3802 0.742188 18.151 0.501302 20 0.488281Z" fill="black"/>
</svg>
