<svg width="24" height="24" viewBox="0 0 24 24" fill="none" xmlns="http://www.w3.org/2000/svg">
<path d="M24 23.1797C24 23.3984 23.9336 23.5898 23.8008 23.7539C23.668 23.918 23.4844 24 23.25 24C23.0469 24 22.8711 23.9258 22.7227 23.7773L13.5234 14.5898C12.7734 15.207 11.9531 15.6797 11.0625 16.0078C10.1719 16.3359 9.23438 16.5 8.25 16.5C7.49219 16.5 6.76172 16.4023 6.05859 16.207C5.35547 16.0117 4.69922 15.7344 4.08984 15.375C3.48047 15.0156 2.92578 14.5859 2.42578 14.0859C1.92578 13.5859 1.49219 13.0273 1.125 12.4102C0.757812 11.793 0.480469 11.1367 0.292969 10.4414C0.105469 9.74609 0.0078125 9.01562 0 8.25C0 7.49219 0.0976563 6.76172 0.292969 6.05859C0.488281 5.35547 0.765625 4.69922 1.125 4.08984C1.48438 3.48047 1.91406 2.92578 2.41406 2.42578C2.91406 1.92578 3.47266 1.49219 4.08984 1.125C4.70703 0.757812 5.36328 0.480469 6.05859 0.292969C6.75391 0.105469 7.48438 0.0078125 8.25 0C9.00781 0 9.73828 0.0976563 10.4414 0.292969C11.1445 0.488281 11.8008 0.765625 12.4102 1.125C13.0195 1.48438 13.5742 1.91406 14.0742 2.41406C14.5742 2.91406 15.0078 3.47266 15.375 4.08984C15.7422 4.70703 16.0195 5.36328 16.207 6.05859C16.3945 6.75391 16.4922 7.48438 16.5 8.25C16.5 9.22656 16.3359 10.1602 16.0078 11.0508C15.6797 11.9414 15.207 12.7656 14.5898 13.5234L15.2578 14.1914C15.5859 14.5195 15.9844 14.9102 16.4531 15.3633C16.9219 15.8164 17.4297 16.3125 17.9766 16.8516C18.5234 17.3906 19.0781 17.9414 19.6406 18.5039C20.2031 19.0664 20.7461 19.6133 21.2695 20.1445C21.793 20.6758 22.2578 21.1562 22.6641 21.5859C23.0703 22.0156 23.3945 22.3711 23.6367 22.6523C23.8789 22.9336 24 23.1094 24 23.1797ZM8.25 15C9.17969 15 10.0547 14.8242 10.875 14.4727C11.6953 14.1211 12.4102 13.6367 13.0195 13.0195C13.6289 12.4023 14.1094 11.6875 14.4609 10.875C14.8125 10.0625 14.9922 9.1875 15 8.25C15 7.32031 14.8242 6.44531 14.4727 5.625C14.1211 4.80469 13.6367 4.08984 13.0195 3.48047C12.4023 2.87109 11.6875 2.39062 10.875 2.03906C10.0625 1.6875 9.1875 1.50781 8.25 1.5C7.32031 1.5 6.44531 1.67578 5.625 2.02734C4.80469 2.37891 4.08984 2.86328 3.48047 3.48047C2.87109 4.09766 2.39062 4.8125 2.03906 5.625C1.6875 6.4375 1.50781 7.3125 1.5 8.25C1.5 9.17969 1.67578 10.0547 2.02734 10.875C2.37891 11.6953 2.86328 12.4102 3.48047 13.0195C4.09766 13.6289 4.8125 14.1094 5.625 14.4609C6.4375 14.8125 7.3125 14.9922 8.25 15Z" fill="black"/>
</svg>
