<svg width="117" height="25" viewBox="0 0 117 25" fill="none" xmlns="http://www.w3.org/2000/svg">
<path d="M11.6026 9.64205C11.2788 7.23011 9.33558 5.73864 6.02876 5.73864C2.67933 5.73864 0.471946 7.28977 0.480469 9.8125C0.471946 11.7727 1.70774 13.0426 4.26456 13.554L6.53161 14.0057C7.67365 14.2358 8.19354 14.6534 8.21058 15.3097C8.19354 16.0852 7.34979 16.6392 6.0799 16.6392C4.78445 16.6392 3.92365 16.0852 3.70206 15.0199L0.131037 15.2074C0.471946 17.7131 2.60263 19.2557 6.07138 19.2557C9.46342 19.2557 11.8924 17.5256 11.9009 14.9432C11.8924 13.0511 10.6566 11.9176 8.11683 11.3977L5.74751 10.9205C4.52876 10.6562 4.07706 10.2386 4.08558 9.60795C4.07706 8.82386 4.96342 8.3125 6.08842 8.3125C7.34979 8.3125 8.09979 9.00284 8.27876 9.84659L11.6026 9.64205ZM21.1502 5.90909H18.6871V2.77273H15.0565V5.90909H13.2667V8.63636H15.0565V15.4545C15.0394 18.0199 16.7866 19.2898 19.4201 19.179C20.3576 19.1449 21.0224 18.9574 21.3888 18.8381L20.8178 16.1364C20.6388 16.1705 20.2553 16.2557 19.9144 16.2557C19.19 16.2557 18.6871 15.983 18.6871 14.9773V8.63636H21.1502V5.90909ZM23.5153 19H27.146V11.5938C27.146 9.98295 28.3221 8.875 29.9244 8.875C30.4272 8.875 31.1175 8.96023 31.4585 9.07102V5.84943C31.1346 5.77273 30.6829 5.72159 30.3164 5.72159C28.8505 5.72159 27.6488 6.57386 27.1715 8.19318H27.0352V5.90909H23.5153V19ZM36.6935 19.2472C38.6282 19.2472 39.881 18.4034 40.5202 17.1847H40.6225V19H44.0657V10.1705C44.0657 7.05114 41.4237 5.73864 38.5089 5.73864C35.3725 5.73864 33.31 7.23864 32.8072 9.625L36.1651 9.89773C36.4123 9.02841 37.1879 8.3892 38.4918 8.3892C39.7276 8.3892 40.435 9.01136 40.435 10.0852V10.1364C40.435 10.9801 39.5401 11.0909 37.2646 11.3125C34.6737 11.5511 32.3469 12.4205 32.3469 15.3438C32.3469 17.9347 34.1964 19.2472 36.6935 19.2472ZM37.7333 16.7415C36.6168 16.7415 35.8157 16.2216 35.8157 15.2244C35.8157 14.2017 36.6594 13.6989 37.9379 13.5199C38.7305 13.4091 40.0259 13.2216 40.4606 12.9318V14.321C40.4606 15.6932 39.3271 16.7415 37.7333 16.7415ZM46.8825 23.9091H50.5131V16.9034H50.6239C51.1268 17.9943 52.2262 19.2131 54.3398 19.2131C57.3228 19.2131 59.6495 16.8523 59.6495 12.4716C59.6495 7.97159 57.2205 5.73864 54.3484 5.73864C52.158 5.73864 51.1097 7.04261 50.6239 8.10795H50.462V5.90909H46.8825V23.9091ZM50.4364 12.4545C50.4364 10.1193 51.4251 8.62784 53.1893 8.62784C54.9876 8.62784 55.9421 10.1875 55.9421 12.4545C55.9421 14.7386 54.9705 16.3239 53.1893 16.3239C51.4421 16.3239 50.4364 14.7898 50.4364 12.4545ZM65.7006 1.54545H62.07V19H65.7006V1.54545ZM72.342 19.2472C74.2766 19.2472 75.5295 18.4034 76.1687 17.1847H76.271V19H79.7141V10.1705C79.7141 7.05114 77.0721 5.73864 74.1573 5.73864C71.021 5.73864 68.9585 7.23864 68.4556 9.625L71.8136 9.89773C72.0607 9.02841 72.8363 8.3892 74.1403 8.3892C75.3761 8.3892 76.0835 9.01136 76.0835 10.0852V10.1364C76.0835 10.9801 75.1886 11.0909 72.913 11.3125C70.3221 11.5511 67.9954 12.4205 67.9954 15.3438C67.9954 17.9347 69.8448 19.2472 72.342 19.2472ZM73.3817 16.7415C72.2653 16.7415 71.4641 16.2216 71.4641 15.2244C71.4641 14.2017 72.3079 13.6989 73.5863 13.5199C74.3789 13.4091 75.6744 13.2216 76.109 12.9318V14.321C76.109 15.6932 74.9755 16.7415 73.3817 16.7415ZM82.5309 19H86.1616V5.90909H82.5309V19ZM84.3548 4.22159C85.4371 4.22159 86.3235 3.39489 86.3235 2.38068C86.3235 1.375 85.4371 0.548295 84.3548 0.548295C83.2809 0.548295 82.3945 1.375 82.3945 2.38068C82.3945 3.39489 83.2809 4.22159 84.3548 4.22159ZM92.7006 11.4318C92.7092 9.74432 93.7148 8.75568 95.1808 8.75568C96.6381 8.75568 97.516 9.71023 97.5075 11.3125V19H101.138V10.6648C101.138 7.61364 99.3484 5.73864 96.6211 5.73864C94.6779 5.73864 93.2717 6.69318 92.6836 8.21875H92.5302V5.90909H89.07V19H92.7006V11.4318ZM109.897 24.1818C113.639 24.1818 116.298 22.4773 116.298 19.1278V5.90909H112.693V8.10795H112.556C112.071 7.04261 111.005 5.73864 108.815 5.73864C105.943 5.73864 103.514 7.97159 103.514 12.429C103.514 16.7841 105.875 18.8125 108.824 18.8125C110.912 18.8125 112.079 17.7642 112.556 16.6818H112.71V19.0767C112.71 20.875 111.559 21.5739 109.983 21.5739C108.38 21.5739 107.571 20.875 107.272 20.0824L103.914 20.5341C104.349 22.5966 106.369 24.1818 109.897 24.1818ZM109.974 16.0852C108.193 16.0852 107.221 14.6705 107.221 12.4119C107.221 10.1875 108.176 8.62784 109.974 8.62784C111.738 8.62784 112.727 10.1193 112.727 12.4119C112.727 14.7216 111.721 16.0852 109.974 16.0852Z" fill="black"/>
</svg>
